<mxfile host="app.diagrams.net" agent="Mozilla/5.0 (Windows NT 10.0; Win64; x64) AppleWebKit/537.36 (KHTML, like Gecko) Chrome/130.0.0.0 Safari/537.36 Edg/130.0.0.0" version="24.8.2">
  <diagram name="Página-1" id="A1XricTwvR2LtzFUGfRS">
    <mxGraphModel dx="1869" dy="539" grid="1" gridSize="10" guides="1" tooltips="1" connect="1" arrows="1" fold="1" page="1" pageScale="1" pageWidth="827" pageHeight="1169" math="0" shadow="0">
      <root>
        <mxCell id="0" />
        <mxCell id="1" parent="0" />
        <mxCell id="thF2VDcHaVG7FaZjGytK-1" value="Professor" style="shape=umlActor;verticalLabelPosition=bottom;verticalAlign=top;html=1;outlineConnect=0;" parent="1" vertex="1">
          <mxGeometry x="-100" y="30" width="50" height="100" as="geometry" />
        </mxCell>
        <mxCell id="thF2VDcHaVG7FaZjGytK-5" value="Tela principal" style="shape=umlBoundary;whiteSpace=wrap;html=1;" parent="1" vertex="1">
          <mxGeometry x="30" y="40" width="100" height="80" as="geometry" />
        </mxCell>
        <mxCell id="thF2VDcHaVG7FaZjGytK-9" style="edgeStyle=orthogonalEdgeStyle;rounded=0;orthogonalLoop=1;jettySize=auto;html=1;entryX=0.05;entryY=0.496;entryDx=0;entryDy=0;entryPerimeter=0;" parent="1" source="thF2VDcHaVG7FaZjGytK-5" edge="1">
          <mxGeometry relative="1" as="geometry">
            <mxPoint x="203.9375" y="79.63999999999999" as="targetPoint" />
          </mxGeometry>
        </mxCell>
        <mxCell id="thF2VDcHaVG7FaZjGytK-35" style="edgeStyle=orthogonalEdgeStyle;rounded=0;orthogonalLoop=1;jettySize=auto;html=1;entryX=0.018;entryY=0.495;entryDx=0;entryDy=0;entryPerimeter=0;" parent="1" source="thF2VDcHaVG7FaZjGytK-1" target="thF2VDcHaVG7FaZjGytK-5" edge="1">
          <mxGeometry relative="1" as="geometry" />
        </mxCell>
        <mxCell id="thF2VDcHaVG7FaZjGytK-37" value="Acessar tela de duvidas" style="ellipse;shape=umlControl;whiteSpace=wrap;html=1;" parent="1" vertex="1">
          <mxGeometry x="200" y="30" width="78.75" height="90" as="geometry" />
        </mxCell>
        <mxCell id="thF2VDcHaVG7FaZjGytK-38" value="Tela de duvidas" style="shape=umlBoundary;whiteSpace=wrap;html=1;" parent="1" vertex="1">
          <mxGeometry x="-60" y="160" width="140" height="112" as="geometry" />
        </mxCell>
        <mxCell id="thF2VDcHaVG7FaZjGytK-39" value="" style="endArrow=classic;html=1;rounded=0;entryX=0.997;entryY=0.356;entryDx=0;entryDy=0;entryPerimeter=0;" parent="1" source="thF2VDcHaVG7FaZjGytK-37" target="thF2VDcHaVG7FaZjGytK-38" edge="1">
          <mxGeometry width="50" height="50" relative="1" as="geometry">
            <mxPoint x="280" y="250" as="sourcePoint" />
            <mxPoint x="330" y="200" as="targetPoint" />
          </mxGeometry>
        </mxCell>
        <mxCell id="yQ8m5PVfVtzuY-FzAJRZ-28" value="" style="endArrow=classic;html=1;rounded=0;exitX=0.432;exitY=0.055;exitDx=0;exitDy=0;exitPerimeter=0;" edge="1" parent="1" source="thF2VDcHaVG7FaZjGytK-38" target="thF2VDcHaVG7FaZjGytK-1">
          <mxGeometry width="50" height="50" relative="1" as="geometry">
            <mxPoint x="-50" y="240" as="sourcePoint" />
            <mxPoint y="190" as="targetPoint" />
          </mxGeometry>
        </mxCell>
        <mxCell id="yQ8m5PVfVtzuY-FzAJRZ-75" style="edgeStyle=orthogonalEdgeStyle;rounded=0;orthogonalLoop=1;jettySize=auto;html=1;" edge="1" parent="1" source="yQ8m5PVfVtzuY-FzAJRZ-65" target="yQ8m5PVfVtzuY-FzAJRZ-74">
          <mxGeometry relative="1" as="geometry">
            <Array as="points">
              <mxPoint x="280" y="235" />
              <mxPoint x="280" y="340" />
              <mxPoint x="258" y="340" />
            </Array>
          </mxGeometry>
        </mxCell>
        <mxCell id="yQ8m5PVfVtzuY-FzAJRZ-76" value="caso&amp;nbsp; não haja duvidas&lt;div&gt;&amp;nbsp;para serem respondidas&lt;/div&gt;" style="edgeLabel;html=1;align=center;verticalAlign=middle;resizable=0;points=[];" vertex="1" connectable="0" parent="yQ8m5PVfVtzuY-FzAJRZ-75">
          <mxGeometry x="0.4563" y="1" relative="1" as="geometry">
            <mxPoint as="offset" />
          </mxGeometry>
        </mxCell>
        <mxCell id="yQ8m5PVfVtzuY-FzAJRZ-65" value="Visualizar lista de duvidas" style="ellipse;shape=umlControl;whiteSpace=wrap;html=1;" vertex="1" parent="1">
          <mxGeometry x="190" y="190" width="78.75" height="90" as="geometry" />
        </mxCell>
        <mxCell id="yQ8m5PVfVtzuY-FzAJRZ-66" style="edgeStyle=orthogonalEdgeStyle;rounded=0;orthogonalLoop=1;jettySize=auto;html=1;entryX=0.018;entryY=0.39;entryDx=0;entryDy=0;entryPerimeter=0;" edge="1" parent="1" source="thF2VDcHaVG7FaZjGytK-38" target="yQ8m5PVfVtzuY-FzAJRZ-65">
          <mxGeometry relative="1" as="geometry" />
        </mxCell>
        <mxCell id="yQ8m5PVfVtzuY-FzAJRZ-67" value="Lista de duvidas" style="ellipse;shape=umlEntity;whiteSpace=wrap;html=1;" vertex="1" parent="1">
          <mxGeometry x="400" y="100" width="80" height="80" as="geometry" />
        </mxCell>
        <mxCell id="yQ8m5PVfVtzuY-FzAJRZ-68" value="" style="endArrow=classic;html=1;rounded=0;exitX=0.783;exitY=0.243;exitDx=0;exitDy=0;exitPerimeter=0;entryX=-0.004;entryY=0.598;entryDx=0;entryDy=0;entryPerimeter=0;" edge="1" parent="1" source="yQ8m5PVfVtzuY-FzAJRZ-65" target="yQ8m5PVfVtzuY-FzAJRZ-67">
          <mxGeometry width="50" height="50" relative="1" as="geometry">
            <mxPoint x="270" y="180" as="sourcePoint" />
            <mxPoint x="320" y="130" as="targetPoint" />
          </mxGeometry>
        </mxCell>
        <mxCell id="yQ8m5PVfVtzuY-FzAJRZ-73" style="edgeStyle=orthogonalEdgeStyle;rounded=0;orthogonalLoop=1;jettySize=auto;html=1;entryX=0.86;entryY=0.879;entryDx=0;entryDy=0;entryPerimeter=0;" edge="1" parent="1" source="yQ8m5PVfVtzuY-FzAJRZ-69" target="thF2VDcHaVG7FaZjGytK-38">
          <mxGeometry relative="1" as="geometry">
            <Array as="points">
              <mxPoint x="60" y="360" />
            </Array>
          </mxGeometry>
        </mxCell>
        <mxCell id="yQ8m5PVfVtzuY-FzAJRZ-83" style="edgeStyle=orthogonalEdgeStyle;rounded=0;orthogonalLoop=1;jettySize=auto;html=1;" edge="1" parent="1" source="yQ8m5PVfVtzuY-FzAJRZ-69" target="yQ8m5PVfVtzuY-FzAJRZ-78">
          <mxGeometry relative="1" as="geometry">
            <Array as="points">
              <mxPoint x="155" y="490" />
              <mxPoint x="10" y="490" />
            </Array>
          </mxGeometry>
        </mxCell>
        <mxCell id="yQ8m5PVfVtzuY-FzAJRZ-69" value="Exibir duvida" style="ellipse;shape=umlControl;whiteSpace=wrap;html=1;" vertex="1" parent="1">
          <mxGeometry x="120" y="320" width="70" height="80" as="geometry" />
        </mxCell>
        <mxCell id="yQ8m5PVfVtzuY-FzAJRZ-71" value="" style="endArrow=classic;html=1;rounded=0;exitX=0.207;exitY=0.954;exitDx=0;exitDy=0;exitPerimeter=0;entryX=0.857;entryY=0.25;entryDx=0;entryDy=0;entryPerimeter=0;" edge="1" parent="1" source="yQ8m5PVfVtzuY-FzAJRZ-65" target="yQ8m5PVfVtzuY-FzAJRZ-69">
          <mxGeometry width="50" height="50" relative="1" as="geometry">
            <mxPoint x="220" y="270" as="sourcePoint" />
            <mxPoint x="270" y="220" as="targetPoint" />
          </mxGeometry>
        </mxCell>
        <mxCell id="yQ8m5PVfVtzuY-FzAJRZ-72" value="caso haja duvidas para&amp;nbsp;&lt;div&gt;serem respondidas&lt;/div&gt;" style="edgeLabel;html=1;align=center;verticalAlign=middle;resizable=0;points=[];" vertex="1" connectable="0" parent="yQ8m5PVfVtzuY-FzAJRZ-71">
          <mxGeometry x="0.0548" y="3" relative="1" as="geometry">
            <mxPoint x="-5" y="-11" as="offset" />
          </mxGeometry>
        </mxCell>
        <mxCell id="yQ8m5PVfVtzuY-FzAJRZ-74" value="mensagem de que não exitem duvidas a serem respondidas" style="ellipse;shape=umlControl;whiteSpace=wrap;html=1;" vertex="1" parent="1">
          <mxGeometry x="210" y="400" width="96.25" height="110" as="geometry" />
        </mxCell>
        <mxCell id="yQ8m5PVfVtzuY-FzAJRZ-77" style="edgeStyle=orthogonalEdgeStyle;rounded=0;orthogonalLoop=1;jettySize=auto;html=1;entryX=0.745;entryY=0.993;entryDx=0;entryDy=0;entryPerimeter=0;" edge="1" parent="1" source="yQ8m5PVfVtzuY-FzAJRZ-74" target="thF2VDcHaVG7FaZjGytK-38">
          <mxGeometry relative="1" as="geometry" />
        </mxCell>
        <mxCell id="yQ8m5PVfVtzuY-FzAJRZ-78" value="Responder duvida" style="ellipse;shape=umlControl;whiteSpace=wrap;html=1;" vertex="1" parent="1">
          <mxGeometry x="-25" y="500" width="70" height="80" as="geometry" />
        </mxCell>
        <mxCell id="yQ8m5PVfVtzuY-FzAJRZ-82" style="edgeStyle=orthogonalEdgeStyle;rounded=0;orthogonalLoop=1;jettySize=auto;html=1;entryX=0.5;entryY=1;entryDx=0;entryDy=0;" edge="1" parent="1" source="yQ8m5PVfVtzuY-FzAJRZ-80" target="yQ8m5PVfVtzuY-FzAJRZ-67">
          <mxGeometry relative="1" as="geometry" />
        </mxCell>
        <mxCell id="yQ8m5PVfVtzuY-FzAJRZ-80" value="Remover duvida da lista&amp;nbsp;" style="ellipse;shape=umlControl;whiteSpace=wrap;html=1;" vertex="1" parent="1">
          <mxGeometry x="250" y="510" width="70" height="80" as="geometry" />
        </mxCell>
        <mxCell id="yQ8m5PVfVtzuY-FzAJRZ-81" style="edgeStyle=orthogonalEdgeStyle;rounded=0;orthogonalLoop=1;jettySize=auto;html=1;entryX=-0.02;entryY=0.48;entryDx=0;entryDy=0;entryPerimeter=0;" edge="1" parent="1" source="yQ8m5PVfVtzuY-FzAJRZ-78" target="yQ8m5PVfVtzuY-FzAJRZ-80">
          <mxGeometry relative="1" as="geometry" />
        </mxCell>
      </root>
    </mxGraphModel>
  </diagram>
</mxfile>
